<svg id="Camada_1" data-name="Camada 1" xmlns="http://www.w3.org/2000/svg" viewBox="0 0 128 128"><defs><style>.cls-1{fill:#9e743c;}.cls-2{fill:#b7925c;}.cls-3{fill:#895f2c;}.cls-4{fill:#e72000;}.cls-4,.cls-5{stroke:#fff;stroke-miterlimit:10;}.cls-5{fill:#2b17e2;}.cls-6{fill:#492600;}</style></defs><polygon class="cls-1" points="94.87 12.03 94.89 38.85 42.95 38.85 68.92 12.03 94.87 12.03"/><polygon class="cls-2" points="68.92 12.03 68.92 42.34 27.53 42.34 68.92 12.03"/><rect class="cls-2" x="27.53" y="42.34" width="41.39" height="42.74"/><rect class="cls-1" x="68.92" y="38.85" width="25.97" height="46.24"/><polygon class="cls-2" points="68.92 85.09 27.53 115.41 27.53 85.09 68.92 85.09"/><polygon class="cls-1" points="27.53 115.41 68.92 85.09 94.89 85.09 53.5 115.56 27.53 115.41"/><rect class="cls-3" x="68.92" y="43.29" width="11.02" height="11.12"/><rect class="cls-4" x="82.34" y="13.82" width="11.02" height="11.12"/><rect class="cls-5" x="78.97" y="21.54" width="6.73" height="6.79"/><polygon class="cls-3" points="27.53 69.92 68.92 43.29 68.92 54.41 27.53 81.03 27.53 69.92"/><polygon class="cls-6" points="27.53 74.31 68.92 48.06 68.92 49.65 27.53 75.9 27.53 74.31"/></svg>