<svg id="Camada_1" data-name="Camada 1" xmlns="http://www.w3.org/2000/svg" viewBox="0 0 128 128"><defs><style>.cls-1{fill:#36a9e1;}.cls-2{fill:#1d71b8;}.cls-3{fill:#683c11;}.cls-4{fill:#432918;}</style></defs><polygon class="cls-1" points="77.57 18 125.23 116.12 119.74 116.12 71.83 18 77.57 18"/><polygon class="cls-2" points="68.96 23.74 116.87 121.83 119.74 116.12 71.83 18 68.96 23.74"/><polygon class="cls-1" points="28.57 17.41 76.24 115.53 70.75 115.53 22.84 17.41 28.57 17.41"/><polygon class="cls-2" points="19.97 23.15 67.88 121.24 70.75 115.53 22.84 17.41 19.97 23.15"/><polygon class="cls-3" points="116.87 23.71 106.64 69.13 106.64 116.07 116.87 116.07 116.87 23.71"/><polygon class="cls-3" points="100.9 23.71 90.67 68.14 90.67 116.07 100.9 116.07 100.9 23.71"/><polygon class="cls-3" points="84.93 23.73 74.7 69.13 74.7 116.08 84.93 116.08 84.93 23.73"/><polygon class="cls-3" points="68.96 23.7 58.51 69.13 58.21 116.05 68.96 116.05 68.96 23.7"/><polygon class="cls-3" points="52.78 23.7 42.54 69.13 42.54 116.05 52.78 116.05 52.78 23.7"/><polygon class="cls-3" points="36.81 23.7 26.46 69.13 25.8 116.05 36.81 116.05 36.81 23.7"/><polygon class="cls-3" points="20.73 23.69 0.02 116.01 0.03 127.94 20.82 127.93 20.73 23.69"/><rect class="cls-4" x="67.55" y="61.16" width="104.24" height="5.74" transform="translate(55.65 183.7) rotate(-90)"/><rect class="cls-4" x="51.58" y="61.16" width="104.24" height="5.74" transform="translate(39.68 167.73) rotate(-90)"/><rect class="cls-4" x="35.62" y="61.18" width="104.22" height="5.74" transform="translate(23.69 151.78) rotate(-90)"/><rect class="cls-4" x="19.65" y="61.15" width="104.22" height="5.74" transform="translate(7.74 135.78) rotate(-90)"/><rect class="cls-4" x="3.46" y="61.15" width="104.22" height="5.74" transform="translate(-8.44 119.59) rotate(-90)"/><rect class="cls-4" x="-12.51" y="61.15" width="104.22" height="5.74" transform="translate(-24.41 103.62) rotate(-90)"/><rect class="cls-4" x="-28.59" y="61.15" width="104.22" height="5.74" transform="translate(-40.49 87.54) rotate(-90)"/><polygon class="cls-1" points="5.33 0.14 127.82 0.14 127.82 11.87 5.33 12 5.33 0.14"/><polygon class="cls-1" points="5.33 116.04 127.82 116.04 127.8 127.93 2.67 127.93 5.33 116.04"/><polygon class="cls-2" points="5.33 11.87 127.82 11.87 125.22 23.75 2.6 23.73 5.33 11.87"/><polygon class="cls-2" points="2.6 23.73 2.6 11.87 5.33 11.87 2.6 23.73"/><polygon class="cls-2" points="5.33 116.04 5.33 128.03 2.67 127.93 5.33 116.04"/><polygon class="cls-2" points="5.33 0.06 5.33 12.05 2.67 11.94 5.33 0.06"/><rect class="cls-4" x="-61.26" y="61.08" width="127.84" height="5.74" transform="translate(-61.29 66.62) rotate(-90)"/></svg>