<svg id="Camada_1" data-name="Camada 1" xmlns="http://www.w3.org/2000/svg" viewBox="0 0 128 128"><defs><style>.cls-1{fill:#683c11;}.cls-2{fill:#432918;}.cls-3{fill:#1d71b8;}</style></defs><rect class="cls-1" x="-2.76" y="2.71" width="128.05" height="122.54" transform="translate(-2.71 125.24) rotate(-90)"/><rect class="cls-2" x="67.55" y="61.12" width="104.24" height="5.74" transform="translate(55.68 183.66) rotate(-90)"/><rect class="cls-2" x="51.58" y="61.12" width="104.24" height="5.74" transform="translate(39.71 167.69) rotate(-90)"/><rect class="cls-2" x="35.62" y="61.14" width="104.22" height="5.74" transform="translate(23.72 151.74) rotate(-90)"/><rect class="cls-2" x="19.65" y="61.11" width="104.22" height="5.74" transform="translate(7.78 135.74) rotate(-90)"/><rect class="cls-2" x="3.46" y="61.11" width="104.22" height="5.74" transform="translate(-8.41 119.56) rotate(-90)"/><rect class="cls-2" x="-12.51" y="61.11" width="104.22" height="5.74" transform="translate(-24.38 103.59) rotate(-90)"/><rect class="cls-2" x="-28.59" y="61.11" width="104.22" height="5.74" transform="translate(-40.46 87.51) rotate(-90)"/><polygon class="cls-3" points="5.33 0.11 127.82 0.11 125.22 11.99 2.6 11.96 5.33 0.11"/><polygon class="cls-3" points="5.33 116.01 127.82 116.01 127.8 127.89 2.67 127.89 5.33 116.01"/><polygon class="cls-3" points="2.6 11.96 2.6 0.11 5.33 0.11 2.6 11.96"/><rect class="cls-2" x="-61.32" y="61.16" width="127.84" height="5.74" transform="translate(-61.43 66.63) rotate(-90)"/></svg>