<svg id="Camada_1" data-name="Camada 1" xmlns="http://www.w3.org/2000/svg" viewBox="0 0 128 128"><defs><style>.cls-1{fill:#36a9e1;}.cls-2{fill:#432918;}.cls-3{fill:#1d71b8;}.cls-4{fill:#683c11;}.cls-5{fill:none;}</style></defs><rect class="cls-1" x="5.38" y="-0.05" width="122.58" height="11.88"/><rect class="cls-2" x="67.65" y="61.08" width="104.24" height="5.74" transform="translate(55.81 183.71) rotate(-90)"/><rect class="cls-2" x="51.68" y="61.08" width="104.24" height="5.74" transform="translate(39.84 167.74) rotate(-90)"/><polygon class="cls-3" points="5.38 11.83 127.87 11.83 125.25 23.71 2.67 23.83 5.38 11.83"/><polygon class="cls-4" points="116.9 23.71 106.66 69.13 106.66 116.07 116.9 116.07 116.9 23.71"/><polygon class="cls-4" points="100.93 23.71 90.69 68.14 90.69 116.07 100.93 116.07 100.93 23.71"/><rect class="cls-2" x="41.66" y="67.05" width="92.33" height="5.74" transform="translate(17.91 157.74) rotate(-90)"/><polygon class="cls-4" points="84.96 23.73 74.72 69.13 74.72 116.08 84.96 116.08 84.96 23.73"/><rect class="cls-2" x="25.69" y="67.02" width="92.33" height="5.74" transform="translate(1.96 141.75) rotate(-90)"/><polygon class="cls-4" points="68.99 23.7 58.53 69.13 58.23 116.05 68.99 116.05 68.99 23.7"/><rect class="cls-2" x="9.5" y="67.02" width="92.33" height="5.74" transform="translate(-14.23 125.56) rotate(-90)"/><polygon class="cls-4" points="52.8 23.7 42.56 69.13 42.56 116.05 52.8 116.05 52.8 23.7"/><rect class="cls-2" x="-6.47" y="67.02" width="92.33" height="5.74" transform="translate(-30.2 109.59) rotate(-90)"/><polygon class="cls-4" points="36.83 23.7 26.49 69.13 25.82 116.05 36.83 116.05 36.83 23.7"/><rect class="cls-2" x="-22.55" y="67.02" width="92.33" height="5.74" transform="translate(-46.27 93.51) rotate(-90)"/><polygon class="cls-4" points="20.75 23.69 0.03 105.88 0.05 127.94 20.84 127.93 20.75 23.69"/><line class="cls-5" x1="125.25" y1="17.77" x2="2.75" y2="17.89"/><polygon class="cls-1" points="77.59 17.96 125.25 116.08 119.76 116.08 71.85 17.96 77.59 17.96"/><polygon class="cls-3" points="68.99 23.7 116.9 121.79 119.76 116.08 71.85 17.96 68.99 23.7"/><polygon class="cls-1" points="29.36 17.96 77.02 116.08 71.53 116.08 23.62 17.96 29.36 17.96"/><polygon class="cls-3" points="20.75 23.7 68.66 121.79 71.53 116.08 23.62 17.96 20.75 23.7"/><rect class="cls-1" x="5.38" y="116.07" width="122.58" height="11.88"/><polygon class="cls-3" points="5.38 -0.05 2.75 11.71 2.67 23.83 5.38 11.83 5.38 -0.05"/><polygon class="cls-3" points="5.38 116.07 2.67 127.94 5.38 127.95 5.38 116.07"/><rect class="cls-2" x="-61.26" y="61.16" width="127.84" height="5.74" transform="translate(-61.37 66.69) rotate(-90)"/></svg>